<?xml version="1.0" encoding="utf-8"?>
<!-- Generator: Adobe Illustrator 26.1.0, SVG Export Plug-In . SVG Version: 6.00 Build 0)  -->
<svg version="1.1" id="Layer_1" xmlns="http://www.w3.org/2000/svg" xmlns:xlink="http://www.w3.org/1999/xlink" x="0px" y="0px"
	 viewBox="0 0 506.999023 73.904297" style="enable-background:new 0 0 506.999023 73.904297;" xml:space="preserve">
<g>
	<path d="M40.402832,22.201172c-0.700195-3.900391-3.900391-10.000488-12.900879-10.000488
		c-6.700684,0-11.100586,4.300293-11.100586,9.000488c0,3.900391,2.5,7.000488,7.700195,8.000488l9.900879,1.899902
		c12.900391,2.500488,19.80127,10.900879,19.80127,20.901367c0,10.900879-9.100586,21.901367-25.601562,21.901367
		C9.400879,73.904297,1.100098,61.803711,0,51.703125l12.800781-3.400391c0.600098,7.000488,5.500488,13.300781,15.500977,13.300781
		c7.400391,0,11.500977-3.700195,11.500977-8.700195c0-4.100586-3.100098-7.300781-8.600586-8.400879l-9.900879-2
		c-11.300293-2.300293-18.601074-9.600586-18.601074-20.30127C2.700195,9.600586,14.000977,0,27.401855,0
		c17.201172,0,23.80127,10.400391,25.401367,18.400879L40.402832,22.201172z"/>
	<path d="M108.002441,47.802734c0,15.101074-11.100586,26.101562-25.801758,26.101562
		c-14.700684,0-25.80127-11.000488-25.80127-26.101562c0-15.200684,11.100586-26.101562,25.80127-26.101562
		C96.901855,21.701172,108.002441,32.602051,108.002441,47.802734z M94.70166,47.802734
		c0-9.300293-6.000488-14.000977-12.500977-14.000977s-12.500488,4.700684-12.500488,14.000977
		c0,9.200684,6,14.000977,12.500488,14.000977S94.70166,57.103516,94.70166,47.802734z"/>
	<path d="M146.101562,67.104004c-2.700195,4.600098-8.400391,6.600586-13.600586,6.600586
		c-11.900879,0-18.701172-8.700684-18.701172-19.401367V23.201172h13.300781v28.401855
		c0,5.500488,2.799805,9.900391,9.000488,9.900391c5.900391,0,9.300293-4,9.300293-9.700195V23.201172h13.300781v40.302734
		c0,3.800293,0.300293,7.200195,0.5,8.900391h-12.700684C146.301758,71.404297,146.101562,69.104004,146.101562,67.104004z"/>
	<path d="M182.200195,72.404297h-13.300781V23.201172h12.900391v6.100586c3.000488-5.100586,8.900879-7.400391,14.201172-7.400391
		c12.200684,0,17.800781,8.700195,17.800781,19.500977v31.001953h-13.300781v-28.70166
		c0-5.500488-2.700195-9.800781-9.100586-9.800781c-5.800293,0-9.200195,4.500488-9.200195,10.200684V72.404297z"/>
	<path d="M270.202148,63.503906c0,3.300293,0.200195,6.900391,0.399414,8.900391h-12.700195c-0.200195-1-0.5-3.400391-0.5-5.700195
		c-2.200195,3.899902-7.200684,6.900391-13.800781,6.900391c-14.000977,0-24.001465-11.000977-24.001465-25.901855
		c0-14.400879,9.700195-25.701172,23.601074-25.701172c8.500977,0,12.500977,3.5,13.901367,6.100098V0h13.100586V63.503906z
		 M245.200684,61.703613c6.800293,0,12.100098-5.200195,12.100098-14.100586c0-8.800781-5.299805-13.701172-12.100098-13.701172
		C238.399902,33.901855,233,38.902344,233,47.702637C233,56.503418,238.200195,61.703613,245.200684,61.703613z"/>
	<path d="M347.300781,1.5h14.600586l-26.301758,70.904297h-14.201172L295.197266,1.5h15.100586l18.501953,52.703125L347.300781,1.5z
		"/>
	<path d="M369.597656,44.102539l12.101562-1.800293c2.799805-0.399902,3.700195-1.799805,3.700195-3.5
		c0-3.5-2.700195-6.400391-8.300781-6.400391c-5.800781,0-9.000977,3.700195-9.400391,8.000488l-11.800781-2.5
		c0.799805-7.700684,7.900391-16.201172,21.100586-16.201172c15.601562,0,21.401367,8.800781,21.401367,18.701172v24.20166
		c0,2.600098,0.300781,6.100098,0.600586,7.800293h-12.201172c-0.299805-1.300293-0.5-4.000488-0.5-5.900391
		c-2.5,3.900391-7.200195,7.300293-14.500977,7.300293c-10.5,0-16.900391-7.100098-16.900391-14.800781
		C354.897461,50.203125,361.397461,45.302734,369.597656,44.102539z M385.399414,52.50293v-2.200195l-11.101562,1.700195
		c-3.399414,0.5-6.099609,2.400391-6.099609,6.200684c0,2.899902,2.099609,5.700195,6.400391,5.700195
		C380.198242,63.903809,385.399414,61.203613,385.399414,52.50293z"/>
	<path d="M421.09668,72.404297h-13.300781V23.201172h12.900391v6.100586c3-5.100586,8.900391-7.400391,14.201172-7.400391
		c12.200195,0,17.800781,8.700195,17.800781,19.500977v31.001953h-13.300781v-28.70166
		c0-5.500488-2.700195-9.800781-9.100586-9.800781c-5.799805,0-9.200195,4.500488-9.200195,10.200684V72.404297z"/>
	<path d="M506.298828,58.303223c-2.5,8.500977-10.300781,15.601074-22.401367,15.601074
		c-13.500977,0-25.401367-9.700684-25.401367-26.30127c0-15.701172,11.600586-25.901855,24.201172-25.901855
		c15.201172,0,24.301758,9.700684,24.301758,25.501465c0,1.900391-0.200195,3.900391-0.200195,4.100586H471.59668
		c0.299805,6.5,5.800781,11.200684,12.400391,11.200684c6.201172,0,9.600586-3.100586,11.201172-7.500488L506.298828,58.303223z
		 M493.898438,42.202637c-0.200195-4.900391-3.400391-9.700684-11.000977-9.700684
		c-6.900391,0-10.701172,5.200195-11.000977,9.700684H493.898438z"/>
</g>
</svg>
